<svg width="48" height="48" version="1.1" viewBox="0 0 12.7 12.7" xmlns="http://www.w3.org/2000/svg">
<path d="m3.705 2.117c-0.5862 0-1.059 0.4719-1.059 1.058v3.173c0 0.4454 0.2742 0.8244 0.6622 0.981 0.08333 0.7542-0.6622 1.136-0.6622 1.136s1.323 0 1.852-1.058h0.2646v-2.116c0-0.5862 0.4719-1.058 1.058-1.058h2.118v-1.058c0-0.5862-0.4723-1.058-1.059-1.058zm4.232 2.116v2.116c0 0.5862-0.4723 1.058-1.059 1.058h-2.116v1.058c0 0.5862 0.4719 1.059 1.058 1.059h2.38c0.5292 1.058 1.852 1.058 1.852 1.058s-0.7445-0.3818-0.6614-1.136c0.3881-0.1566 0.6614-0.5355 0.6614-0.981v-3.175c0-0.5862-0.4716-1.058-1.058-1.058zm-0.7941 0.8056-1.071 1.071-0.4866-0.4874-0.2913 0.2926 0.7779 0.7779 1.362-1.362z" fill="#b99e73"/>
</svg>
